<svg width="704" height="750" viewBox="0 0 704 750" fill="none" xmlns="http://www.w3.org/2000/svg">
<g filter="url(#filter0_d_894_922)">
<path d="M352 200L503.554 287.5V462.5L352 550L200.446 462.5V287.5L352 200Z" fill="black" fill-opacity="0.01"/>
</g>
<path opacity="0.2" d="M352 200L503.554 287.5V462.5L352 550L200.446 462.5V287.5L352 200Z" fill="url(#paint0_linear_894_922)"/>
<path opacity="0.2" d="M351.999 227.599L479.652 301.299V448.701L351.999 522.402L224.346 448.701V301.299L351.999 227.599Z" fill="url(#paint1_linear_894_922)"/>
<path opacity="0.2" d="M352.001 257.706L453.58 316.353V433.647L352.001 492.294L250.421 433.647V316.353L352.001 257.706Z" fill="url(#paint2_linear_894_922)"/>
<path d="M352 294.086L422.073 334.543V415.457L352 455.914L281.926 415.457V334.543L352 294.086Z" fill="url(#paint3_linear_894_922)" fill-opacity="0.68"/>
<g filter="url(#filter1_d_894_922)">
<path d="M380.74 373.308L385.244 377.918L364.239 399.462L353.077 388.02L357.581 383.41L364.239 390.21L380.74 373.308ZM345.036 388.02L354.686 397.828H322.52V391.289C322.52 384.064 334.035 378.212 348.252 378.212L354.332 378.572L345.036 388.02ZM348.252 345.52C351.665 345.52 354.937 346.898 357.35 349.35C359.763 351.802 361.119 355.129 361.119 358.597C361.119 362.065 359.763 365.391 357.35 367.844C354.937 370.296 351.665 371.674 348.252 371.674C344.84 371.674 341.567 370.296 339.154 367.844C336.742 365.391 335.386 362.065 335.386 358.597C335.386 355.129 336.742 351.802 339.154 349.35C341.567 346.898 344.84 345.52 348.252 345.52V345.52Z" fill="url(#paint4_linear_894_922)" shape-rendering="crispEdges"/>
</g>
<defs>
<filter id="filter0_d_894_922" x="0.445312" y="0" width="703.109" height="750" filterUnits="userSpaceOnUse" color-interpolation-filters="sRGB">
<feFlood flood-opacity="0" result="BackgroundImageFix"/>
<feColorMatrix in="SourceAlpha" type="matrix" values="0 0 0 0 0 0 0 0 0 0 0 0 0 0 0 0 0 0 127 0" result="hardAlpha"/>
<feOffset/>
<feGaussianBlur stdDeviation="100"/>
<feColorMatrix type="matrix" values="0 0 0 0 0.00807291 0 0 0 0 0.645833 0 0 0 0 0.570167 0 0 0 1 0"/>
<feBlend mode="normal" in2="BackgroundImageFix" result="effect1_dropShadow_894_922"/>
<feBlend mode="normal" in="SourceGraphic" in2="effect1_dropShadow_894_922" result="shape"/>
</filter>
<filter id="filter1_d_894_922" x="317.986" y="342.8" width="71.792" height="63.01" filterUnits="userSpaceOnUse" color-interpolation-filters="sRGB">
<feFlood flood-opacity="0" result="BackgroundImageFix"/>
<feColorMatrix in="SourceAlpha" type="matrix" values="0 0 0 0 0 0 0 0 0 0 0 0 0 0 0 0 0 0 127 0" result="hardAlpha"/>
<feOffset dy="1.81347"/>
<feGaussianBlur stdDeviation="2.26684"/>
<feComposite in2="hardAlpha" operator="out"/>
<feColorMatrix type="matrix" values="0 0 0 0 0 0 0 0 0 0 0 0 0 0 0 0 0 0 0.25 0"/>
<feBlend mode="normal" in2="BackgroundImageFix" result="effect1_dropShadow_894_922"/>
<feBlend mode="normal" in="SourceGraphic" in2="effect1_dropShadow_894_922" result="shape"/>
</filter>
<linearGradient id="paint0_linear_894_922" x1="527" y1="550" x2="177" y2="200" gradientUnits="userSpaceOnUse">
<stop stop-color="#3ADB71" stop-opacity="0.8"/>
<stop offset="1" stop-color="#2BF1E5" stop-opacity="0.79"/>
</linearGradient>
<linearGradient id="paint1_linear_894_922" x1="499.401" y1="522.402" x2="204.598" y2="227.599" gradientUnits="userSpaceOnUse">
<stop stop-color="#3ADB71" stop-opacity="0.8"/>
<stop offset="1" stop-color="#2BF1E5" stop-opacity="0.79"/>
</linearGradient>
<linearGradient id="paint2_linear_894_922" x1="469.295" y1="492.294" x2="234.707" y2="257.706" gradientUnits="userSpaceOnUse">
<stop stop-color="#3ADB71" stop-opacity="0.8"/>
<stop offset="1" stop-color="#2BF1E5" stop-opacity="0.79"/>
</linearGradient>
<linearGradient id="paint3_linear_894_922" x1="432.914" y1="455.914" x2="271.086" y2="294.086" gradientUnits="userSpaceOnUse">
<stop stop-color="#1AF958"/>
<stop offset="0.9999" stop-color="#10F1FF"/>
<stop offset="1" stop-color="#1DF0E3" stop-opacity="0"/>
</linearGradient>
<linearGradient id="paint4_linear_894_922" x1="386.048" y1="400.123" x2="338.682" y2="333.111" gradientUnits="userSpaceOnUse">
<stop stop-color="white"/>
<stop offset="1" stop-color="white" stop-opacity="0.8"/>
</linearGradient>
</defs>
</svg>
